<svg id="Grid" xmlns="http://www.w3.org/2000/svg" viewBox="0 0 1172.2 1202.8"><defs><style>.cls-1{fill:none;}.cls-1,.cls-2,.cls-3{stroke:#000;stroke-miterlimit:10;}.cls-1,.cls-3{stroke-width:3px;}.cls-3{fill:#fff;}</style></defs><title>go-shusaku</title><rect class="cls-1" x="1.5" y="34" width="1136" height="1138"/><line class="cls-1" x1="1139" y1="97" x2="3" y2="97"/><line class="cls-1" x1="1139" y1="160" x2="3" y2="160"/><line class="cls-1" x1="1139" y1="223" x2="3" y2="223"/><line class="cls-1" x1="1139" y1="286" x2="3" y2="286"/><line class="cls-1" x1="1139" y1="349" x2="3" y2="349"/><line class="cls-1" x1="1139" y1="413" x2="3" y2="413"/><line class="cls-1" x1="1139" y1="476" x2="3" y2="476"/><line class="cls-1" x1="1139" y1="539" x2="3" y2="539"/><line class="cls-1" x1="1139" y1="602" x2="3" y2="602"/><line class="cls-1" x1="1139" y1="665" x2="3" y2="665"/><line class="cls-1" x1="1139" y1="728" x2="3" y2="728"/><line class="cls-1" x1="1139" y1="791" x2="3" y2="791"/><line class="cls-1" x1="1139" y1="855" x2="3" y2="855"/><line class="cls-1" x1="1139" y1="918" x2="3" y2="918"/><line class="cls-1" x1="1139" y1="981" x2="3" y2="981"/><line class="cls-1" x1="1139" y1="1044" x2="3" y2="1044"/><line class="cls-1" x1="1139" y1="1107" x2="3" y2="1107"/><path class="cls-1" d="M72,1207.5" transform="translate(-69 -38.5)"/><path class="cls-1" d="M1272,1207.5" transform="translate(-69 -38.5)"/><line class="cls-1" x1="64.5" y1="1169.5" x2="64.5" y2="32.5"/><line class="cls-1" x1="127.5" y1="1169.5" x2="127.5" y2="32.5"/><line class="cls-1" x1="191.5" y1="1169.5" x2="191.5" y2="32.5"/><line class="cls-1" x1="254.5" y1="1169.5" x2="254.5" y2="32.5"/><line class="cls-1" x1="317.5" y1="1169.5" x2="317.5" y2="32.5"/><line class="cls-1" x1="380.5" y1="1169.5" x2="380.5" y2="32.5"/><line class="cls-1" x1="443.5" y1="1169.5" x2="443.5" y2="32.5"/><line class="cls-1" x1="506.5" y1="1169.5" x2="506.5" y2="32.5"/><line class="cls-1" x1="569.5" y1="1169.5" x2="569.5" y2="32.5"/><line class="cls-1" x1="633.5" y1="1169.5" x2="633.5" y2="32.5"/><line class="cls-1" x1="696.5" y1="1169.5" x2="696.5" y2="32.5"/><line class="cls-1" x1="759.5" y1="1169.5" x2="759.5" y2="32.5"/><line class="cls-1" x1="822.5" y1="1169.5" x2="822.5" y2="32.5"/><line class="cls-1" x1="885.5" y1="1169.5" x2="885.5" y2="32.5"/><line class="cls-1" x1="948.5" y1="1169.5" x2="948.5" y2="32.5"/><line class="cls-1" x1="1012.5" y1="1169.5" x2="1012.5" y2="32.5"/><line class="cls-1" x1="1075.5" y1="1171.5" x2="1075.5" y2="32.5"/><path class="cls-1" d="M1208.5,71" transform="translate(-69 -38.5)"/><path class="cls-1" d="M1208.5,1208" transform="translate(-69 -38.5)"/><circle class="cls-2" cx="192.5" cy="96" r="31.5"/><circle class="cls-2" cx="318.5" cy="159" r="31.5"/><circle class="cls-2" cx="318.5" cy="285" r="31.5"/><circle class="cls-2" cx="128.7" cy="980.3" r="31.5"/><circle class="cls-2" cx="255.8" cy="980.3" r="31.5"/><circle class="cls-2" cx="318.8" cy="1043.3" r="31.5"/><circle class="cls-2" cx="381.8" cy="1106.3" r="31.5"/><circle class="cls-2" cx="444.8" cy="1043.3" r="31.5"/><circle class="cls-2" cx="444.8" cy="980.3" r="31.5"/><circle class="cls-2" cx="381.8" cy="917.3" r="31.5"/><circle class="cls-2" cx="570.8" cy="854.3" r="31.5"/><circle class="cls-2" cx="697.8" cy="854.3" r="31.5"/><circle class="cls-2" cx="697.8" cy="917.3" r="31.5"/><circle class="cls-2" cx="697.8" cy="980.3" r="31.5"/><circle class="cls-2" cx="886.8" cy="980.3" r="31.5"/><circle class="cls-2" cx="886.8" cy="1043.3" r="31.5"/><circle class="cls-2" cx="886.8" cy="1106.3" r="31.5"/><circle class="cls-2" cx="823.8" cy="1043.3" r="31.5"/><circle class="cls-2" cx="823.8" cy="1106.3" r="31.5"/><circle class="cls-2" cx="823.8" cy="1169.8" r="31.5"/><circle class="cls-2" cx="949.6" cy="790.8" r="31.5"/><path class="cls-2" d="M1050.1,892.3c0,17.4-11.4,31.5-31.5,31.5A31.5,31.5,0,1,1,1050.1,892.3Z" transform="translate(-69 -38.5)"/><circle class="cls-2" cx="949.6" cy="916.8" r="31.5"/><circle class="cls-2" cx="1013.5" cy="538.3" r="31.5"/><circle class="cls-2" cx="1013.5" cy="601.3" r="31.5"/><circle class="cls-2" cx="1013.5" cy="664.3" r="31.5"/><circle class="cls-2" cx="886.8" cy="601.3" r="31.5"/><circle class="cls-2" cx="949.6" cy="664.3" r="31.5"/><circle class="cls-2" cx="949.6" cy="727.3" r="31.5"/><circle class="cls-2" cx="949.6" cy="538.3" r="31.5"/><circle class="cls-2" cx="1076.8" cy="538.3" r="31.5"/><circle class="cls-2" cx="761.8" cy="1043.3" r="31.5"/><circle class="cls-2" cx="1076.8" cy="727.8" r="31.5"/><circle class="cls-2" cx="949.6" cy="1044.3" r="31.5"/><circle class="cls-2" cx="949.6" cy="1169.3" r="31.5"/><circle class="cls-2" cx="1013.5" cy="1106.3" r="31.5"/><circle class="cls-2" cx="1076.8" cy="1169.3" r="31.5"/><circle class="cls-2" cx="823.8" cy="917.3" r="31.5"/><circle class="cls-2" cx="759.8" cy="538.8" r="31.5"/><circle class="cls-2" cx="886.8" cy="475.3" r="31.5"/><circle class="cls-2" cx="1077.3" cy="412.3" r="31.5"/><circle class="cls-2" cx="1013.5" cy="412.3" r="31.5"/><circle class="cls-2" cx="1140.3" cy="412.3" r="31.5"/><circle class="cls-2" cx="949.6" cy="285.3" r="31.5"/><circle class="cls-2" cx="949.6" cy="349.3" r="31.5"/><circle class="cls-2" cx="1013.5" cy="285.3" r="31.5"/><circle class="cls-2" cx="760.5" cy="222" r="31.5"/><circle class="cls-2" cx="696.5" cy="222" r="31.5"/><circle class="cls-2" cx="823.5" cy="222" r="31.5"/><circle class="cls-2" cx="634.5" cy="159" r="31.5"/><circle class="cls-2" cx="571.5" cy="159" r="31.5"/><circle class="cls-2" cx="1013.5" cy="222.3" r="31.5"/><circle class="cls-2" cx="635" cy="285" r="31.5"/><circle class="cls-2" cx="570.5" cy="33" r="31.5"/><circle class="cls-2" cx="570.5" cy="96" r="31.5"/><circle class="cls-2" cx="949.5" cy="159" r="31.5"/><circle class="cls-2" cx="1013.4" cy="96" r="31.5"/><circle class="cls-2" cx="1139.8" cy="475.3" r="31.5"/><circle class="cls-2" cx="570.5" cy="538" r="31.5"/><g id="White_stones" data-name="White stones"><circle class="cls-3" cx="128.5" cy="159" r="31.5"/><circle class="cls-3" cx="128.5" cy="348" r="31.5"/><circle class="cls-3" cx="128.7" cy="854.3" r="31.5"/><circle class="cls-3" cx="128.8" cy="664.3" r="31.5"/><circle class="cls-3" cx="381.8" cy="1043.3" r="31.5"/><circle class="cls-3" cx="444.8" cy="1106.3" r="31.5"/><circle class="cls-3" cx="508.8" cy="1043.3" r="31.5"/><circle class="cls-3" cx="507.8" cy="1169.8" r="31.5"/><circle class="cls-3" cx="570.8" cy="1106.3" r="31.5"/><circle class="cls-3" cx="634.8" cy="1106.3" r="31.5"/><circle class="cls-3" cx="633.8" cy="1043.3" r="31.5"/><circle class="cls-3" cx="697.8" cy="1043.3" r="31.5"/><circle class="cls-3" cx="696.8" cy="1169.3" r="31.5"/><circle class="cls-3" cx="760.8" cy="1106.3" r="31.5"/><circle class="cls-3" cx="760.8" cy="791.3" r="31.5"/><circle class="cls-3" cx="759.8" cy="854.3" r="31.5"/><circle class="cls-3" cx="761.8" cy="917.3" r="31.5"/><circle class="cls-3" cx="759.8" cy="980.3" r="31.5"/><circle class="cls-3" cx="823.8" cy="980.3" r="31.5"/><circle class="cls-3" cx="507.8" cy="917.3" r="31.5"/><circle class="cls-3" cx="886.8" cy="727.3" r="31.5"/><circle class="cls-3" cx="886.8" cy="791.3" r="31.5"/><circle class="cls-3" cx="886.8" cy="854.3" r="31.5"/><circle class="cls-3" cx="886.8" cy="917.3" r="31.5"/><circle class="cls-3" cx="886.8" cy="664.3" r="31.5"/><circle class="cls-3" cx="949.6" cy="980.3" r="31.5"/><circle class="cls-3" cx="1013.5" cy="727.3" r="31.5"/><circle class="cls-3" cx="1013.5" cy="791.3" r="31.5"/><circle class="cls-3" cx="1076.8" cy="791.3" r="31.5"/><circle class="cls-3" cx="1013.5" cy="918.3" r="31.5"/><circle class="cls-3" cx="1013.5" cy="981.3" r="31.5"/><circle class="cls-3" cx="1013.5" cy="1044.3" r="31.5"/><circle class="cls-3" cx="886.8" cy="538.3" r="31.5"/><circle class="cls-3" cx="1076.8" cy="1043.3" r="31.5"/><circle class="cls-3" cx="1076.8" cy="1106.3" r="31.5"/><circle class="cls-3" cx="1078.8" cy="600.8" r="31.5"/><circle class="cls-3" cx="823.8" cy="537.8" r="31.5"/><circle class="cls-3" cx="823.8" cy="601.8" r="31.5"/><circle class="cls-3" cx="759.8" cy="601.8" r="31.5"/><circle class="cls-3" cx="1013.5" cy="475" r="31.5"/><circle class="cls-3" cx="949.6" cy="475" r="31.5"/><circle class="cls-3" cx="1076.8" cy="475" r="31.5"/><circle class="cls-3" cx="886.8" cy="412.3" r="31.5"/><circle class="cls-3" cx="822.8" cy="412.3" r="31.5"/><circle class="cls-3" cx="949.6" cy="412.3" r="31.5"/><circle class="cls-3" cx="1077.3" cy="349.3" r="31.5"/><circle class="cls-3" cx="1013.5" cy="349.3" r="31.5"/><circle class="cls-3" cx="1076.8" cy="664.8" r="31.5"/><circle class="cls-3" cx="634.5" cy="96" r="31.5"/><circle class="cls-3" cx="634" cy="33" r="31.5"/><circle class="cls-3" cx="697.5" cy="33" r="31.5"/><circle class="cls-3" cx="697" cy="158" r="31.5"/><circle class="cls-3" cx="761" cy="96" r="31.5"/><circle class="cls-3" cx="763" cy="159" r="31.5"/><circle class="cls-3" cx="886.5" cy="159" r="31.5"/><circle class="cls-3" cx="886" cy="96" r="31.5"/><circle class="cls-3" cx="949.5" cy="96" r="31.5"/><circle class="cls-3" cx="507.5" cy="159" r="31.5"/><circle class="cls-3" cx="192.5" cy="159" r="31.5"/></g></svg>