<svg id="Stones" xmlns="http://www.w3.org/2000/svg" viewBox="0 0 1075.7 1200.8"><defs><style>.cls-1{fill:#fff;}.cls-1,.cls-2{stroke:#000;stroke-miterlimit:10;}</style></defs><title>go-shusaku-no-board</title><circle class="cls-1" cx="32" cy="158" r="31.5"/><circle class="cls-1" cx="32" cy="347" r="31.5"/><circle class="cls-2" cx="96" cy="95" r="31.5"/><circle class="cls-2" cx="222" cy="158" r="31.5"/><circle class="cls-2" cx="222" cy="284" r="31.5"/><circle class="cls-2" cx="32.2" cy="979.3" r="31.5"/><circle class="cls-2" cx="159.2" cy="979.3" r="31.5"/><circle class="cls-2" cx="222.2" cy="1042.3" r="31.5"/><circle class="cls-2" cx="285.2" cy="1105.3" r="31.5"/><circle class="cls-2" cx="348.2" cy="1042.3" r="31.5"/><circle class="cls-2" cx="348.2" cy="979.3" r="31.5"/><circle class="cls-2" cx="285.2" cy="916.3" r="31.5"/><circle class="cls-2" cx="474.2" cy="853.3" r="31.5"/><circle class="cls-2" cx="601.2" cy="853.3" r="31.5"/><circle class="cls-2" cx="601.2" cy="916.3" r="31.5"/><circle class="cls-2" cx="601.2" cy="979.3" r="31.5"/><circle class="cls-1" cx="32.2" cy="853.3" r="31.5"/><circle class="cls-1" cx="32.2" cy="663.3" r="31.5"/><circle class="cls-1" cx="285.2" cy="1042.3" r="31.5"/><circle class="cls-1" cx="348.2" cy="1105.3" r="31.5"/><circle class="cls-1" cx="412.2" cy="1042.3" r="31.5"/><circle class="cls-1" cx="411.2" cy="1168.8" r="31.5"/><circle class="cls-1" cx="474.2" cy="1105.3" r="31.5"/><circle class="cls-1" cx="538.2" cy="1105.3" r="31.5"/><circle class="cls-1" cx="537.2" cy="1042.3" r="31.5"/><circle class="cls-1" cx="601.2" cy="1042.3" r="31.5"/><circle class="cls-1" cx="600.2" cy="1168.3" r="31.5"/><circle class="cls-1" cx="664.2" cy="1105.3" r="31.5"/><circle class="cls-1" cx="664.2" cy="790.3" r="31.5"/><circle class="cls-1" cx="663.2" cy="853.3" r="31.5"/><circle class="cls-1" cx="665.2" cy="916.3" r="31.5"/><circle class="cls-1" cx="663.2" cy="979.3" r="31.5"/><circle class="cls-1" cx="727.2" cy="979.3" r="31.5"/><circle class="cls-1" cx="411.2" cy="916.3" r="31.5"/><circle class="cls-1" cx="790.2" cy="726.3" r="31.5"/><circle class="cls-1" cx="790.2" cy="790.3" r="31.5"/><circle class="cls-1" cx="790.2" cy="853.3" r="31.5"/><circle class="cls-1" cx="790.2" cy="916.3" r="31.5"/><circle class="cls-1" cx="790.2" cy="663.3" r="31.5"/><circle class="cls-1" cx="853.1" cy="979.3" r="31.5"/><circle class="cls-2" cx="790.2" cy="979.3" r="31.5"/><circle class="cls-2" cx="790.2" cy="1042.3" r="31.5"/><circle class="cls-2" cx="790.2" cy="1105.3" r="31.5"/><circle class="cls-2" cx="727.2" cy="1042.3" r="31.5"/><circle class="cls-2" cx="727.2" cy="1105.3" r="31.5"/><circle class="cls-2" cx="727.2" cy="1168.8" r="31.5"/><circle class="cls-2" cx="853.1" cy="789.8" r="31.5"/><path class="cls-2" d="M1050.1,892.3c0,17.4-11.4,31.5-31.5,31.5A31.5,31.5,0,1,1,1050.1,892.3Z" transform="translate(-165.5 -39.5)"/><circle class="cls-2" cx="853.1" cy="915.8" r="31.5"/><circle class="cls-2" cx="917" cy="537.3" r="31.5"/><circle class="cls-2" cx="917" cy="600.3" r="31.5"/><circle class="cls-2" cx="917" cy="663.3" r="31.5"/><circle class="cls-2" cx="790.2" cy="600.3" r="31.5"/><circle class="cls-2" cx="853.1" cy="663.3" r="31.5"/><circle class="cls-2" cx="853.1" cy="726.3" r="31.5"/><circle class="cls-2" cx="853.1" cy="537.3" r="31.5"/><circle class="cls-2" cx="980.2" cy="537.3" r="31.5"/><circle class="cls-1" cx="917" cy="726.3" r="31.5"/><circle class="cls-1" cx="917" cy="790.3" r="31.5"/><circle class="cls-1" cx="980.2" cy="790.3" r="31.5"/><circle class="cls-2" cx="665.2" cy="1042.3" r="31.5"/><circle class="cls-2" cx="980.2" cy="726.8" r="31.5"/><circle class="cls-2" cx="853.1" cy="1043.3" r="31.5"/><circle class="cls-2" cx="853.1" cy="1168.3" r="31.5"/><circle class="cls-2" cx="917" cy="1105.3" r="31.5"/><circle class="cls-2" cx="980.2" cy="1168.3" r="31.5"/><circle class="cls-1" cx="917" cy="917.3" r="31.5"/><circle class="cls-1" cx="917" cy="980.3" r="31.5"/><circle class="cls-1" cx="917" cy="1043.3" r="31.5"/><circle class="cls-1" cx="790.2" cy="537.3" r="31.5"/><circle class="cls-1" cx="980.2" cy="1042.3" r="31.5"/><circle class="cls-1" cx="980.2" cy="1105.3" r="31.5"/><circle class="cls-2" cx="727.2" cy="916.3" r="31.5"/><circle class="cls-1" cx="982.2" cy="599.8" r="31.5"/><circle class="cls-1" cx="727.2" cy="536.8" r="31.5"/><circle class="cls-1" cx="727.2" cy="600.8" r="31.5"/><circle class="cls-1" cx="663.2" cy="600.8" r="31.5"/><circle class="cls-2" cx="663.2" cy="537.8" r="31.5"/><circle class="cls-2" cx="790.2" cy="474.3" r="31.5"/><circle class="cls-1" cx="917" cy="474" r="31.5"/><circle class="cls-1" cx="853.1" cy="474" r="31.5"/><circle class="cls-1" cx="980.2" cy="474" r="31.5"/><circle class="cls-1" cx="790.2" cy="411.3" r="31.5"/><circle class="cls-1" cx="726.2" cy="411.3" r="31.5"/><circle class="cls-1" cx="853.1" cy="411.3" r="31.5"/><circle class="cls-1" cx="980.7" cy="348.3" r="31.5"/><circle class="cls-1" cx="917" cy="348.3" r="31.5"/><circle class="cls-1" cx="980.2" cy="663.8" r="31.5"/><circle class="cls-2" cx="980.7" cy="411.3" r="31.5"/><circle class="cls-2" cx="917" cy="411.3" r="31.5"/><circle class="cls-2" cx="1043.7" cy="411.3" r="31.5"/><circle class="cls-2" cx="853.1" cy="284.3" r="31.5"/><circle class="cls-2" cx="853.1" cy="348.3" r="31.5"/><circle class="cls-2" cx="917" cy="284.3" r="31.5"/><circle class="cls-2" cx="664" cy="221" r="31.5"/><circle class="cls-2" cx="600" cy="221" r="31.5"/><circle class="cls-2" cx="727" cy="221" r="31.5"/><circle class="cls-2" cx="538" cy="158" r="31.5"/><circle class="cls-2" cx="475" cy="158" r="31.5"/><circle class="cls-2" cx="917" cy="221.3" r="31.5"/><circle class="cls-2" cx="538.5" cy="284" r="31.5"/><circle class="cls-2" cx="474" cy="32" r="31.5"/><circle class="cls-2" cx="474" cy="95" r="31.5"/><circle class="cls-2" cx="853" cy="158" r="31.5"/><circle class="cls-2" cx="916.9" cy="95" r="31.5"/><circle class="cls-1" cx="538" cy="95" r="31.5"/><circle class="cls-1" cx="537.5" cy="32" r="31.5"/><circle class="cls-1" cx="601" cy="32" r="31.5"/><circle class="cls-1" cx="600.5" cy="157" r="31.5"/><circle class="cls-1" cx="664.5" cy="95" r="31.5"/><circle class="cls-1" cx="666.5" cy="158" r="31.5"/><circle class="cls-1" cx="790" cy="158" r="31.5"/><circle class="cls-1" cx="789.5" cy="95" r="31.5"/><circle class="cls-1" cx="853" cy="95" r="31.5"/><circle class="cls-2" cx="1043.2" cy="474.3" r="31.5"/><circle class="cls-1" cx="411" cy="158" r="31.5"/><circle class="cls-1" cx="96" cy="158" r="31.5"/><circle class="cls-2" cx="474" cy="537" r="31.5"/></svg>