<svg xmlns="http://www.w3.org/2000/svg" xmlns:xlink="http://www.w3.org/1999/xlink" version="1.1" x="0px" y="0px" viewBox="0 0 100 100" enable-background="new 0 0 100 100" xml:space="preserve"><g><path fill="none" stroke="#000000" stroke-width="1.6955" stroke-linecap="round" stroke-linejoin="round" stroke-miterlimit="10" d="   M2.659,32.042c0,0,11.184,0.994,18.886,0c0,0,8.451-2.733,13.047-4.971c4.6-2.236,9.352-2.41,12.707-1.914   c3.354,0.498,11.48,0.811,14.754,1.045c2.916,0.209,4.971,2.609,2.981,4.97"/><path fill="none" stroke="#000000" stroke-width="1.6955" stroke-linecap="round" stroke-linejoin="round" stroke-miterlimit="10" d="   M97.217,35.646c0,0-18.516,1.118-28.082-1.864c-9.566-2.981-12.923-4.472-18.39-4.224c-5.468,0.248-8.946-0.249-12.301,2.112   s-4.101,3.355-6.586,4.97c-2.484,1.615-6.958,3.105-7.083,4.597c-0.123,1.491-0.869,1.368,0.373,3.106   c1.244,1.74,3.48,1.617,5.717,1.492s6.337-0.747,7.828-2.361c1.49-1.615,4.224-3.355,5.715-3.23   c1.491,0.124,5.342,0.87,7.082,1.615c1.74,0.746,9.071,2.732,12.426,5.716c3.355,2.981,3.48,3.169,4.598,4.163   c1.117,0.993,7.455,6.461,7.703,9.318s0.994,4.225-1.429,5.653s-2.733,1.429-3.665,0.435s-2.236-3.354-4.1-4.969   c-1.865-1.616-7.953-6.648-7.953-6.648"/><path fill="none" stroke="#000000" stroke-width="1.6955" stroke-linecap="round" stroke-linejoin="round" stroke-miterlimit="10" d="   M54.473,62.36c0,0,10.686,7.766,10.686,10.81c0,3.045-1.74,3.23-2.609,3.479c-0.869,0.248-2.734,0.311-4.846-1.242   c-2.113-1.554-8.884-6.586-8.884-6.586"/><path fill="none" stroke="#000000" stroke-width="1.6955" stroke-linecap="round" stroke-linejoin="round" stroke-miterlimit="10" d="   M65.158,73.17c0.187,0.312,3.789,0.312,4.723-1.242c0.932-1.554,1.428-2.299,1.49-4.349"/><path fill="none" stroke="#000000" stroke-width="1.6955" stroke-linecap="round" stroke-linejoin="round" stroke-miterlimit="10" d="   M58.884,76.215c0,0-1.243,3.354-4.163,3.229c-2.919-0.123-6.461-2.111-7.766-3.229c0,0,0.701-3.353-0.603-4.595   c-1.306-1.242-3.827-3.037-4.592-0.742c-0.812,2.431-1.204,3.534-1.204,5.523c0,1.988,1.118,1.926,2.672,2.732   c1.552,0.809,3.292,0.932,5.28-0.994"/><path fill="none" stroke="#000000" stroke-width="1.6955" stroke-linecap="round" stroke-linejoin="round" stroke-miterlimit="10" d="   M35.711,67.642c0,0,0.498-3.045,1.678-3.853s3.416-0.993,3.852,1.615c0.435,2.609,1.049,3.997,0.926,4.866   c0,0-0.676,1.418-1.148,3.038c-0.453,1.552-0.398,3.962-0.398,3.962s-5.254,0.635-5.902-2.982   C34.129,71.013,35.152,69.567,35.711,67.642z"/><path fill="none" stroke="#000000" stroke-width="1.6955" stroke-linecap="round" stroke-linejoin="round" stroke-miterlimit="10" d="   M27.447,67.827C27.33,67.984,26.453,71.37,29,72.611c2.547,1.242,4.474,0.434,5.344-0.063c0,0,1.367-5.715,2.484-8.324   c0,0-0.062-2.734-2.422-3.417c-2.361-0.683-2.859,0.062-3.543,0.995C30.182,62.733,28.193,66.833,27.447,67.827z"/><path fill="none" stroke="#000000" stroke-width="1.6955" stroke-linecap="round" stroke-linejoin="round" stroke-miterlimit="10" d="   M23.161,60.372c0,0,1.367-3.105,2.921-3.417c1.553-0.311,3.602-0.62,4.348,2.237s0.559,2.672-0.373,4.287   c-0.932,1.613-3.418,6.521-6.275,4.162c-2.857-2.361-2.236-4.784-2.236-4.784C22.229,61.677,23.161,60.372,23.161,60.372z"/><path fill="none" stroke="#000000" stroke-width="1.6955" stroke-linecap="round" stroke-linejoin="round" stroke-miterlimit="10" d="   M3.219,57.017c0,0,13.791-0.062,19.817,3.045"/><path fill="none" stroke="#000000" stroke-width="1.6955" stroke-linecap="round" stroke-linejoin="round" stroke-miterlimit="10" d="   M75.627,59.13c0,0,8.293-2.89,21.713-2.518"/></g></svg>