<svg xmlns="http://www.w3.org/2000/svg" xmlns:xlink="http://www.w3.org/1999/xlink" version="1.1" x="0px" y="0px" viewBox="0 0 512 640" enable-background="new 0 0 512 512" xml:space="preserve"><path d="M434.8,489l-37.9-67.9c69.4-212.9,20-349.6-147.2-406.1c-4.1-1.4-8.6-0.8-12.3,1.6c-5.6,3.6-6.5,12.7-6.5,12.7  c-15.6-11.6-37.7-24.8-60.1-27.1c-4.9-0.5-9.8,1.6-12.8,5.6c-3,4-3.6,9.2-1.8,13.8l17.6,42.9c-19.5,19.4-72.6,76.3-87.4,133.6  c-1.3,5,0.2,10.2,3.9,13.7l39.5,37.6c9,6.7,17.8,2,20.3-0.9c11.2-12.7,27.4-21.2,45.5-23.9c11.2-1.6,22.3-5.2,33.2-10.6  c-10.8,22.8-26.8,50.4-48.2,72.9c-34.1,35.9-56.2,81.4-64,131.7L77.2,489c-2.4,4.4-5.5,21,12.3,21h333  C440.1,510,437.3,493.4,434.8,489z M201.1,306.2c49.7-52.1,71.7-125.9,72.6-129c1.8-6.2-0.8-12.8-6.3-16.1  c-5.5-3.3-12.6-2.4-17.2,2.2c-19,19-39.2,30.5-58.6,33.3c-19.6,2.9-37.7,10.9-52.1,23l-23.5-22.3c19.3-58.6,83.3-118.4,84-119  c4.3-4,5.7-10.3,3.5-15.7L194,39c17,9,32.4,22.3,38.7,28.6c3.9,3.9,9.7,5.2,14.8,3.4c5.2-1.9,8.8-6.6,9.3-12.1l0.9-11  c86.3,34.2,133,93.9,140.6,180.5h-63c-7.8,0-14.1,6.3-14.1,14.1c0,7.8,6.3,14.1,14.1,14.1h64.1c-0.1,9.1-0.5,18.5-1.4,28.2h-27.5  c-7.8,0-14.1,6.3-14.1,14.1c0,7.8,6.3,14.1,14.1,14.1h24.1c-4.6,29.7-12.3,61.7-23.4,96.1H147C155.5,370,174,334.6,201.1,306.2z   M113.6,481.8l24.8-44.4h235.3l24.8,44.4H113.6z"/><text x="0" y="527" fill="#000000" font-size="5px" font-weight="bold" font-family="'Helvetica Neue', Helvetica, Arial-Unicode, Arial, Sans-serif">Created by Icon Fair</text><text x="0" y="532" fill="#000000" font-size="5px" font-weight="bold" font-family="'Helvetica Neue', Helvetica, Arial-Unicode, Arial, Sans-serif">from the Noun Project</text></svg>