<svg xmlns="http://www.w3.org/2000/svg" data-name="Layer 1" viewBox="0 0 100 100" x="0px" y="0px"><path d="M49.06,87.68a1.13,1.13,0,0,0,.93.5h0a1.13,1.13,0,0,0,.94-.5l22-33A27.93,27.93,0,0,0,75.1,51,27.62,27.62,0,1,0,25,51.22a26.12,26.12,0,0,0,1.88,3.25ZM28.35,25.74A25.62,25.62,0,0,1,73.28,50.12a26,26,0,0,1-2,3.47L50,85.48,28.57,53.36a24.31,24.31,0,0,1-1.74-3A25.41,25.41,0,0,1,28.35,25.74Z"/><path d="M50,54.61A15.22,15.22,0,1,0,34.78,39.38,15.24,15.24,0,0,0,50,54.61Zm0-28.45A13.22,13.22,0,1,1,36.78,39.38,13.24,13.24,0,0,1,50,26.16Z"/></svg>