<svg xmlns="http://www.w3.org/2000/svg" xmlns:xlink="http://www.w3.org/1999/xlink" viewBox="0 0 60 57.5" version="1.1" x="0px" y="0px"><title>45 -Friendship- (Outline)</title><desc>Created with Sketch.</desc><g stroke="none" stroke-width="1" fill="none" fill-rule="evenodd"><g transform="translate(-599.000000, -864.000000)" fill="#000000"><g transform="translate(599.000000, 864.000000)"><path d="M13.0159,43.0374 C12.4639,43.0374 12.0159,42.5894 12.0159,42.0374 L12.0159,29.0004 C12.0159,28.4484 12.4639,28.0004 13.0159,28.0004 C13.5679,28.0004 14.0159,28.4484 14.0159,29.0004 L14.0159,42.0374 C14.0159,42.5894 13.5679,43.0374 13.0159,43.0374"/><path d="M13.0159,2.0003 C10.8099,2.0003 9.0159,3.7943 9.0159,6.0003 C9.0159,8.2063 10.8099,10.0003 13.0159,10.0003 C15.2219,10.0003 17.0159,8.2063 17.0159,6.0003 C17.0159,3.7943 15.2219,2.0003 13.0159,2.0003 M13.0159,12.0003 C9.7069,12.0003 7.0159,9.3093 7.0159,6.0003 C7.0159,2.6913 9.7069,0.0003 13.0159,0.0003 C16.3249,0.0003 19.0159,2.6913 19.0159,6.0003 C19.0159,9.3093 16.3249,12.0003 13.0159,12.0003"/><path d="M10.4788,45.9994 C10.4318,45.9994 10.3858,45.9984 10.3388,45.9954 C8.4618,45.8964 7.0958,44.2514 7.0168,41.9944 L7.0158,22.5414 L5.5128,25.7904 C5.1258,26.8284 4.0528,27.5714 2.8708,27.5714 C1.9128,27.5714 1.0238,27.0954 0.4938,26.2964 C-0.0362,25.4994 -0.1302,24.4954 0.2408,23.6124 L5.2058,13.1244 C5.9638,11.3204 7.4388,9.8614 9.4528,8.9444 C9.9528,8.7154 10.5478,8.9374 10.7768,9.4404 C11.0058,9.9434 10.7838,10.5364 10.2818,10.7654 C8.7108,11.4804 7.6168,12.5484 7.0318,13.9404 L2.0668,24.4284 C1.9718,24.6564 1.9998,24.9484 2.1598,25.1904 C2.5168,25.7284 3.4428,25.6224 3.6688,25.0184 L7.1078,17.5804 C7.3048,17.1544 7.7718,16.9204 8.2308,17.0234 C8.6888,17.1244 9.0158,17.5314 9.0158,18.0004 L9.0158,41.9594 C9.0578,43.1224 9.6308,43.9564 10.4428,43.9984 C10.8058,44.0194 11.1138,43.7664 11.2718,43.6154 C11.7098,43.2004 12.0158,42.5364 12.0158,42.0004 C12.0158,41.4484 12.4638,41.0004 13.0158,41.0004 C13.5678,41.0004 14.0158,41.4484 14.0158,42.0004 C14.0158,42.5714 14.3148,43.2534 14.7438,43.6604 C14.9158,43.8234 15.1788,44.0184 15.4908,43.9984 C16.1888,43.9614 17.0158,42.8784 17.0158,42.0004 L17.0158,22.0004 C17.0158,21.7474 17.0608,19.4944 18.5918,18.2224 C20.7028,16.4684 23.1278,13.9164 25.2688,11.6654 C25.9958,10.9004 26.6948,10.1654 27.3478,9.4954 L30.5778,6.1234 C30.8758,5.8254 31.0258,5.4494 31.0158,5.0484 C31.0048,4.6484 30.8338,4.2804 30.5358,4.0114 C29.9758,3.5054 29.0408,3.5744 28.4528,4.1634 L22.2118,10.4034 C20.6518,11.9634 18.2128,12.2754 16.4158,11.1454 C16.1938,11.0054 15.9568,10.8914 15.7178,10.7794 C15.2168,10.5454 15.0018,9.9504 15.2358,9.4504 C15.4698,8.9494 16.0658,8.7344 16.5648,8.9684 C16.8788,9.1154 17.1898,9.2694 17.4798,9.4524 C18.4958,10.0904 19.8918,9.8964 20.7978,8.9894 L27.0388,2.7494 C28.3888,1.3974 30.5118,1.2984 31.8738,2.5244 C32.5838,3.1644 32.9898,4.0424 33.0148,4.9964 C33.0398,5.9364 32.6718,6.8574 32.0068,7.5224 L28.7858,10.8854 C28.1318,11.5554 27.4388,12.2854 26.7178,13.0434 C24.5398,15.3344 22.0708,17.9324 19.8698,19.7604 C19.1728,20.3394 19.0158,21.6034 19.0158,22.0004 L19.0158,42.0004 C19.0158,43.7654 17.5218,45.8944 15.5958,45.9954 C14.8028,46.0344 14.0118,45.7234 13.3668,45.1114 C13.2328,44.9844 13.1078,44.8474 12.9908,44.7014 C12.8838,44.8304 12.7698,44.9524 12.6488,45.0664 C12.0118,45.6714 11.2458,45.9994 10.4788,45.9994"/><path d="M47.0159,43.0374 C46.4639,43.0374 46.0159,42.5894 46.0159,42.0374 L46.0159,29.0004 C46.0159,28.4484 46.4639,28.0004 47.0159,28.0004 C47.5689,28.0004 48.0159,28.4484 48.0159,29.0004 L48.0159,42.0374 C48.0159,42.5894 47.5689,43.0374 47.0159,43.0374"/><path d="M47.0159,2.0003 C44.8099,2.0003 43.0159,3.7943 43.0159,6.0003 C43.0159,8.2063 44.8099,10.0003 47.0159,10.0003 C49.2219,10.0003 51.0159,8.2063 51.0159,6.0003 C51.0159,3.7943 49.2219,2.0003 47.0159,2.0003 M47.0159,12.0003 C43.7069,12.0003 41.0159,9.3093 41.0159,6.0003 C41.0159,2.6913 43.7069,0.0003 47.0159,0.0003 C50.3249,0.0003 53.0159,2.6913 53.0159,6.0003 C53.0159,9.3093 50.3249,12.0003 47.0159,12.0003"/><path d="M41.2307,11.8216 C39.9967,11.8216 38.7517,11.3356 37.8197,10.4036 L31.5797,4.1636 C31.2127,3.7976 30.6747,3.6196 30.1737,3.6986 C29.6317,3.7896 29.1157,3.4156 29.0287,2.8696 C28.9407,2.3236 29.3127,1.8116 29.8577,1.7246 C30.9957,1.5406 32.1697,1.9256 32.9937,2.7496 L39.2337,8.9896 C40.1407,9.8966 41.5367,10.0906 42.5517,9.4516 C42.8417,9.2686 43.1527,9.1146 43.4667,8.9676 C43.9647,8.7366 44.5627,8.9496 44.7957,9.4496 C45.0297,9.9496 44.8147,10.5456 44.3137,10.7796 C44.0757,10.8916 43.8377,11.0056 43.6167,11.1446 C42.8927,11.5996 42.0637,11.8216 41.2307,11.8216"/><path d="M49.553,45.9994 C48.785,45.9994 48.02,45.6714 47.382,45.0664 C47.262,44.9524 47.148,44.8304 47.041,44.7014 C46.924,44.8474 46.799,44.9844 46.665,45.1114 C46.02,45.7234 45.233,46.0354 44.436,45.9954 C42.51,45.8944 41.016,43.7654 41.016,42.0004 L41.016,22.0004 C41.012,21.5744 40.852,20.3334 40.162,19.7604 C37.961,17.9324 35.492,15.3344 33.314,13.0434 C32.593,12.2854 31.9,11.5554 31.252,10.8924 L29.294,8.8484 C28.912,8.4494 28.925,7.8164 29.324,7.4344 C29.723,7.0524 30.356,7.0654 30.738,7.4644 L32.69,9.5014 C33.337,10.1654 34.036,10.9004 34.763,11.6654 C36.904,13.9164 39.329,16.4684 41.44,18.2224 C42.971,19.4944 43.016,21.7474 43.016,22.0004 L43.016,42.0004 C43.016,42.8784 43.843,43.9614 44.541,43.9984 C44.858,44.0194 45.117,43.8234 45.288,43.6604 C45.717,43.2534 46.016,42.5714 46.016,42.0004 C46.016,41.4484 46.464,41.0004 47.016,41.0004 C47.569,41.0004 48.016,41.4484 48.016,42.0004 C48.016,42.5364 48.322,43.2004 48.759,43.6154 C48.917,43.7664 49.209,44.0164 49.589,43.9984 C50.401,43.9564 50.975,43.1224 51.017,41.9244 L51.016,18.0004 C51.016,17.5314 51.342,17.1244 51.801,17.0234 C52.257,16.9214 52.727,17.1544 52.923,17.5804 L56.334,24.9504 C56.614,25.6784 57.517,25.7274 57.871,25.1904 C58.032,24.9484 58.06,24.6564 57.947,24.3884 L53.018,13.9794 C52.414,12.5484 51.322,11.4804 49.75,10.7654 C49.248,10.5364 49.027,9.9424 49.255,9.4404 C49.484,8.9374 50.076,8.7164 50.58,8.9444 C52.594,9.8624 54.068,11.3214 54.844,13.1644 L59.773,23.5724 C60.162,24.4954 60.068,25.4984 59.538,26.2964 C59.008,27.0954 58.119,27.5714 57.161,27.5714 C55.979,27.5714 54.905,26.8274 54.49,25.7204 L53.016,22.5374 L53.016,41.9594 C52.936,44.2514 51.57,45.8964 49.694,45.9954 C49.647,45.9984 49.6,45.9994 49.553,45.9994"/></g></g></g><text x="0" y="61" fill="#000000" font-size="5px" font-weight="bold" font-family="'Helvetica Neue', Helvetica, Arial-Unicode, Arial, Sans-serif">Created by Oliviu Stoian</text><text x="0" y="66" fill="#000000" font-size="5px" font-weight="bold" font-family="'Helvetica Neue', Helvetica, Arial-Unicode, Arial, Sans-serif">from the Noun Project</text></svg>